<?xml version="1.0" encoding="UTF-8"?>
<svg width="306px" height="69px" viewBox="0 0 306 69" version="1.1" xmlns="http://www.w3.org/2000/svg" xmlns:xlink="http://www.w3.org/1999/xlink">
    <!-- Generator: Sketch 60.1 (88133) - https://sketch.com -->
    <title>Logo_horizontal_PMS</title>
    <desc>Created with Sketch.</desc>
    <g id="Page-1" stroke="none" stroke-width="1" fill="none" fill-rule="evenodd">
        <g id="LP-PORTFOLIO" transform="translate(-347.000000, -2699.000000)">
            <g id="Opentable" transform="translate(282.000000, 2533.000000)">
                <g id="Logo_horizontal_PMS" transform="translate(65.000000, 166.000000)">
                    <path d="M0,34.3192845 C0,29.6310296 3.79879494,25.8293746 8.48418987,25.8293746 C13.1695848,25.8293746 16.9698097,29.6310296 16.9698097,34.3192845 C16.9698097,39.0089694 13.1695848,42.8106244 8.48418987,42.8106244 C3.79879494,42.8106244 0,39.0089694 0,34.3192845 L0,34.3192845 Z M59.5988241,42.8106244 C54.9127142,42.8106244 51.1146342,39.0089694 51.1146342,34.3192845 C51.1146342,29.6310296 54.9127142,25.8293746 59.5988241,25.8293746 C64.284219,25.8293746 68.084444,29.6310296 68.084444,34.3192845 C68.084444,39.0089694 64.284219,42.8106244 59.5988241,42.8106244 Z M59.5995391,0.357499995 C40.8550994,0.357499995 25.6599196,15.5634048 25.6599196,34.3192845 C25.6599196,53.0773092 40.8550994,68.282499 59.5995391,68.282499 C78.3446938,68.282499 93.5391586,53.0773092 93.5391586,34.3192845 C93.5391586,15.5634048 78.3446938,0.357499995 59.5995391,0.357499995 L59.5995391,0.357499995 Z" id="Fill-1" fill="#CA2437"></path>
                    <path d="M302.16972,31.6916595 C302.705255,31.6916595 303.022715,31.4514195 303.022715,31.0145545 C303.022715,30.6191595 302.80464,30.3596145 302.20833,30.3596145 L301.652775,30.3596145 L301.652775,31.6916595 L302.16972,31.6916595 Z M300.83839,29.6853696 L302.346325,29.6853696 C303.18073,29.6853696 303.89573,30.0221345 303.89573,30.9759445 C303.89573,31.4514195 303.597575,31.9104495 303.161425,32.0677495 L304.075195,33.7179695 L303.161425,33.7179695 L302.465015,32.3272945 L301.652775,32.3272945 L301.652775,33.7179695 L300.83839,33.7179695 L300.83839,29.6853696 Z M305.224915,31.7502895 C305.224915,29.8841396 303.93434,28.5520946 302.269105,28.5520946 C300.600295,28.5520946 299.329741,29.8841396 299.329741,31.7502895 C299.329741,33.6378895 300.600295,34.9284645 302.269105,34.9284645 C303.93434,34.9284645 305.224915,33.6378895 305.224915,31.7502895 Z M298.534661,31.7502895 C298.534661,29.4258246 300.22206,27.8363796 302.269105,27.8363796 C304.332595,27.8363796 306.019995,29.4258246 306.019995,31.7502895 C306.019995,34.0747545 304.332595,35.6641995 302.269105,35.6641995 C300.22206,35.6641995 298.534661,34.0747545 298.534661,31.7502895 Z M273.628351,47.6375893 C274.130996,47.6375893 274.555706,47.2178843 274.555706,46.7152393 L274.555706,43.3061194 C274.555706,42.8027594 274.136716,42.3837694 273.634071,42.3837694 L273.485351,42.3837694 C273.069221,42.3837694 272.653091,41.9697844 272.653091,41.5529394 L272.653806,41.4027894 L272.653806,21.3527597 C272.653806,20.8915847 272.192631,20.4304097 271.732171,20.4304097 L268.338781,20.4304097 C267.878321,20.4304097 267.417861,20.8915847 267.417861,21.3527597 L267.417861,43.7293993 L267.431446,44.3121243 C267.431446,45.9780743 269.095966,47.6425943 270.759771,47.6425943 L273.628351,47.6375893 Z M124.311328,25.7671696 C128.925938,25.7671696 132.821973,29.6789346 132.821973,34.3178545 C132.821973,38.9982444 129.002443,42.7991844 124.311328,42.7991844 C119.640948,42.7991844 115.842868,38.9982444 115.842868,34.3178545 C115.842868,29.6024296 119.640948,25.7671696 124.311328,25.7671696 Z M124.311328,20.3803597 C116.673698,20.3803597 110.460348,26.6330346 110.460348,34.3178545 C110.460348,42.0934794 116.540708,48.1852793 124.311328,48.1852793 C132.102683,48.1852793 138.204493,42.0934794 138.204493,34.3178545 C138.204493,26.6330346 131.969693,20.3803597 124.311328,20.3803597 Z M234.840316,42.1142144 C234.589351,42.8270694 233.081417,44.1684093 231.363987,44.1684093 C229.562902,44.1684093 228.557612,43.0780344 228.557612,41.4435444 C228.557612,39.7253994 229.772397,38.6772094 231.992472,38.6772094 C233.541876,38.6772094 234.840316,39.2642244 234.840316,39.2642244 L234.840316,42.1142144 Z M232.578772,27.8206496 C229.437062,27.8206496 226.379007,28.6171596 225.960017,28.7851846 C225.541742,28.9103096 225.164222,29.2456446 225.332247,29.9584996 L225.751237,32.1385345 C225.834892,32.7248345 226.211697,33.1860095 226.840182,32.9765145 C227.971312,32.6411795 230.526007,32.2636595 232.285622,32.2636595 C234.337671,32.2636595 235.049811,33.4376895 234.966156,35.9108745 C234.966156,35.9108745 233.207257,35.3660445 231.238147,35.3660445 C226.337537,35.3660445 223.531162,38.0065394 223.531162,41.4435444 C223.531162,45.5934043 226.211697,48.0665893 230.065547,48.0665893 C233.081417,48.0665893 235.008341,46.7252493 236.139471,45.6355893 L236.139471,46.6759143 C236.139471,47.1792743 236.558461,47.5982643 237.061106,47.5982643 L237.402876,47.5982643 C237.437911,47.6054143 237.479381,47.6054143 237.521566,47.6054143 L238.945846,47.6054143 C239.448491,47.6054143 239.867481,47.1864243 239.867481,46.6830643 L239.867481,36.2462095 C239.867481,30.9645045 238.610511,27.8206496 232.578772,27.8206496 Z M197.413642,27.8206496 C193.706367,27.8206496 191.905282,29.8119246 191.185992,30.6155845 L191.185992,29.1619896 C191.185992,28.6593446 190.767002,28.2396396 190.264357,28.2396396 L188.072882,28.2396396 C187.611707,28.2396396 187.151247,28.6171596 187.151247,29.1619896 L187.151247,46.6830643 C187.151247,47.1864243 187.611707,47.6054143 188.072882,47.6054143 L191.172407,47.6054143 C192.094042,47.6054143 192.387192,47.3959193 192.387192,46.6830643 L192.387192,35.6170095 C192.847652,34.2756695 194.062437,32.5989945 196.575662,32.5989945 C198.921577,32.5989945 199.926867,34.1505445 199.926867,36.6651994 L199.926867,46.6830643 C199.926867,47.1864243 200.345857,47.6054143 200.848502,47.6054143 L204.241177,47.6054143 C204.702352,47.6054143 205.162812,47.1864243 205.162812,46.6830643 L205.162812,36.6651994 C205.162812,31.9705095 203.571222,27.8206496 197.413642,27.8206496 Z M151.294713,43.2882444 C148.865143,43.2882444 147.273553,42.1978694 147.273553,42.1978694 L147.273553,35.2816745 C147.692543,34.1920145 149.032453,32.5989945 151.546393,32.5989945 C154.562263,32.5989945 156.111668,35.2402045 156.111668,37.9643544 C156.111668,40.6892194 154.478608,43.2882444 151.294713,43.2882444 Z M152.258533,27.8206496 C148.278843,27.8206496 146.072353,30.5383645 145.940078,30.7056745 L145.940078,29.1619896 C145.940078,28.6593446 145.521088,28.2396396 145.018443,28.2396396 L142.959243,28.2396396 C142.456598,28.2396396 142.037608,28.6593446 142.037608,29.1619896 L142.037608,54.5630792 C142.037608,55.0242542 142.456598,55.4854292 142.959243,55.4854292 L146.351918,55.4854292 C146.813093,55.4854292 147.273553,55.0242542 147.273553,54.5630792 L147.273553,47.2700793 C148.153003,47.6054143 149.996273,48.0665893 151.923198,48.0665893 C157.703973,48.0665893 161.515638,43.6235793 161.515638,37.9643544 C161.515638,32.0963495 157.535948,27.8206496 152.258533,27.8206496 Z M290.395816,35.4897395 C290.312161,33.6042845 288.804941,32.1371045 286.667806,32.1371045 C284.322606,32.1371045 282.814671,33.5620995 282.563706,35.4897395 L290.395816,35.4897395 Z M286.794361,27.8199346 C291.820096,27.8199346 295.673946,31.5508045 295.673946,36.7896094 C295.673946,37.0827594 295.631761,37.7534294 295.590291,38.0472944 C295.548106,38.5506544 295.087646,38.9274594 294.668656,38.9274594 L282.269841,38.9274594 C282.312026,41.3162744 284.280421,43.4119393 287.087511,43.4119393 C289.013721,43.4119393 290.354346,42.6997994 291.233796,41.9876594 C291.694971,41.6094244 292.196901,41.5679544 292.490766,41.9876594 L294.123826,44.1662643 C294.459161,44.5437843 294.500631,45.0049593 294.040171,45.4239493 C292.364926,46.8489443 289.977541,48.0651593 286.835831,48.0651593 C281.055771,48.0651593 277.034611,43.4541243 277.034611,37.9214544 C277.034611,32.4724395 281.055771,27.8199346 286.794361,27.8199346 Z M254.011611,43.2882444 C251.498386,43.2882444 250.157761,41.6952244 249.738771,40.6055644 L249.738771,33.6893695 C249.738771,33.6893695 251.330361,32.5989945 253.759931,32.5989945 C256.943826,32.5989945 258.577601,35.1980195 258.577601,37.9228844 C258.577601,40.6470344 257.027481,43.2882444 254.011611,43.2882444 Z M254.472071,27.8206496 C252.545146,27.8206496 250.618936,28.2818246 249.738771,28.6593446 L249.738771,21.2819747 C249.738771,20.8207997 249.319781,20.3596247 248.817136,20.3596247 L245.424461,20.3596247 C244.963286,20.3596247 244.502826,20.8207997 244.502826,21.2819747 L244.502826,46.6830643 C244.502826,47.1864243 244.963286,47.6054143 245.424461,47.6054143 L246.890211,47.6054143 C246.918096,47.6054143 246.946696,47.6054143 246.974581,47.5982643 L247.365686,47.5982643 C247.874766,47.5982643 248.293756,47.1792743 248.293756,46.6759143 L248.293756,45.2437693 L248.314491,45.1744143 C248.314491,45.1744143 250.534566,48.0665893 254.765221,48.0665893 C260.043351,48.0665893 263.855016,43.4555543 263.855016,37.9228844 C263.855016,32.2636595 260.210661,27.8206496 254.472071,27.8206496 Z M224.836037,20.3596247 L205.134212,20.3596247 C204.673752,20.3596247 204.338417,20.7371447 204.338417,21.1561347 L204.338417,24.5931396 C204.338417,25.0121296 204.673752,25.3896496 205.134212,25.3896496 L212.241312,25.3896496 L212.241312,46.8089043 C212.241312,47.2278943 212.618117,47.6054143 213.037107,47.6054143 L216.933142,47.6054143 C217.351417,47.6054143 217.728937,47.2278943 217.728937,46.8089043 L217.728937,25.3896496 L224.836037,25.3896496 C225.296497,25.3896496 225.631832,25.0121296 225.631832,24.5931396 L225.631832,21.1561347 C225.631832,20.7371447 225.296497,20.3596247 224.836037,20.3596247 Z M177.934897,35.4897395 C177.850527,33.6042845 176.343307,32.1371045 174.206887,32.1371045 C171.861687,32.1371045 170.353037,33.5620995 170.102787,35.4897395 L177.934897,35.4897395 Z M174.332727,27.8199346 C179.359177,27.8199346 183.212312,31.5508045 183.212312,36.7896094 C183.212312,37.0827594 183.170842,37.7534294 183.129372,38.0472944 C183.086472,38.5506544 182.626012,38.9274594 182.207022,38.9274594 L169.808922,38.9274594 C169.851107,41.3162744 171.819502,43.4119393 174.625877,43.4119393 C176.552802,43.4119393 177.893427,42.6997994 178.772877,41.9876594 C179.233337,41.6094244 179.735982,41.5679544 180.029132,41.9876594 L181.662907,44.1662643 C181.998242,44.5437843 182.039712,45.0049593 181.578537,45.4239493 C179.903292,46.8489443 177.515907,48.0651593 174.374197,48.0651593 C168.594137,48.0651593 164.572978,43.4541243 164.572978,37.9214544 C164.572978,32.4724395 168.594137,27.8199346 174.332727,27.8199346 L174.332727,27.8199346 Z" id="Fill-2" fill="#1C1D1B"></path>
                </g>
            </g>
        </g>
    </g>
</svg>