<?xml version="1.0" encoding="UTF-8"?>
<svg width="171px" height="68px" viewBox="0 0 171 68" version="1.1" xmlns="http://www.w3.org/2000/svg" xmlns:xlink="http://www.w3.org/1999/xlink">
    <!-- Generator: Sketch 60.1 (88133) - https://sketch.com -->
    <title>logo hiart</title>
    <desc>Created with Sketch.</desc>
    <defs>
        <polygon id="path-1" points="0 0.43085154 36.2444069 0.43085154 36.2444069 62.0847798 0 62.0847798"></polygon>
        <polygon id="path-3" points="0 67.8499986 170.199996 67.8499986 170.199996 0 0 0"></polygon>
    </defs>
    <g id="Page-1" stroke="none" stroke-width="1" fill="none" fill-rule="evenodd">
        <g id="LP-PORTFOLIO" transform="translate(-448.000000, -2080.000000)">
            <g id="Hiart" transform="translate(280.000000, 1920.000000)">
                <g id="logo-hiart" transform="translate(168.000000, 160.000000)">
                    <g id="Group-3" transform="translate(0.000000, 5.750000)">
                        <mask id="mask-2" fill="white">
                            <use xlink:href="#path-1"></use>
                        </mask>
                        <g id="Clip-2"></g>
                        <path d="M5.44981703,0.43085154 L5.44981703,25.2131243 L5.62242655,25.2131243 C6.66071224,22.5078384 8.50596935,20.3343385 11.1590741,18.693499 C13.8104264,17.0526596 16.7237597,16.2331146 19.8955691,16.2331146 C23.00955,16.2331146 25.6188452,16.6363273 27.7243309,17.4418779 C29.8289403,18.2491779 31.515607,19.3844709 32.7843307,20.8530046 C34.0521783,22.3206638 34.9467688,24.1198144 35.4663497,26.249582 C35.9850545,28.3802242 36.2444069,30.7697622 36.2444069,33.4164466 L36.2444069,62.0847798 L30.7945022,62.0847798 L30.7945022,34.2797241 C30.7945022,32.3799889 30.6218927,30.6097016 30.2757975,28.9697369 C29.9297022,27.3288975 29.3242546,25.9040961 28.4594546,24.6953327 C27.5937785,23.4865694 26.4266928,22.5358271 24.9564452,21.84573 C23.4853214,21.1547582 21.6540834,20.8092722 19.4636072,20.8092722 C17.2705025,20.8092722 15.3244835,21.1984905 13.624674,21.9751779 C11.9222359,22.7527398 10.4809026,23.8180609 9.29892171,25.1702665 C8.11606459,26.5233468 7.19343604,28.1353228 6.53103606,30.0053199 C5.86775988,31.8770664 5.50676941,33.9062494 5.44981703,36.0928691 L5.44981703,62.0847798 L-8.76190458e-05,62.0847798 L-8.76190458e-05,0.43085154 L5.44981703,0.43085154 Z" id="Fill-1" fill="#2B2B28" mask="url(#mask-2)"></path>
                    </g>
                    <mask id="mask-4" fill="white">
                        <use xlink:href="#path-3"></use>
                    </mask>
                    <g id="Clip-5"></g>
                    <polygon id="Fill-4" fill="#2B2B28" mask="url(#mask-4)" points="48.299999 67.8499986 54.0499989 67.8499986 54.0499989 21.8499995 48.299999 21.8499995"></polygon>
                    <path d="M91.8839439,43.0795057 C90.3380593,44.1088524 88.4364045,44.7282985 86.1789796,44.9396822 C83.9188458,45.1519849 81.6614209,45.4699795 79.403093,45.8927469 C78.3339765,46.0738017 77.2928522,46.3320574 76.2833318,46.6638379 C75.2720054,46.9965375 74.380774,47.4505529 73.6087347,48.024046 C72.8357924,48.6002964 72.2271907,49.3557633 71.7811235,50.293204 C71.3359593,51.2315638 71.1129257,52.3656833 71.1129257,53.6955625 C71.1129257,54.845306 71.4388979,55.8130757 72.0935511,56.5988716 C72.7463984,57.3855866 73.5337882,58.0050327 74.4557205,58.4590481 C75.3767499,58.9130635 76.3862703,59.2301391 77.4869907,59.4121129 C78.5859052,59.5931676 79.581881,59.6841545 80.4731124,59.6841545 C81.6009219,59.6841545 82.8199313,59.5334287 84.1283348,59.2301391 C85.4340294,58.9286876 86.6692923,58.4140142 87.8278028,57.6879572 C88.9863133,56.9619001 89.9515881,56.0400834 90.7245304,54.9206689 C91.4965698,53.8021734 91.8839439,52.4254222 91.8839439,50.7922534 L91.8839439,43.0795057 Z M102.045968,56.1448562 C102.045968,57.4159155 102.209405,58.3230273 102.536281,58.8671106 C102.862253,59.4121129 103.501555,59.6841545 104.453286,59.6841545 L105.522402,59.6841545 C105.937768,59.6841545 106.414537,59.6244156 106.949999,59.5021807 L106.949999,66.6699261 C106.593325,66.791242 106.131907,66.9272628 105.567551,67.0789076 C105.002292,67.2287143 104.422585,67.3647352 103.829334,67.4869701 C103.234276,67.6073669 102.640122,67.6983538 102.045968,67.7590117 C101.451814,67.8187506 100.94615,67.8499986 100.530784,67.8499986 C98.4494385,67.8499986 96.7265718,67.4263121 95.3603783,66.5798583 C93.9923788,65.7334045 93.1011474,64.2518805 92.6857812,62.1334482 C90.6649344,64.1296455 88.1844759,65.5817596 85.2425998,66.4888714 C82.3007236,67.3959832 79.461786,67.8499986 76.7284959,67.8499986 C74.6480531,67.8499986 72.6579073,67.562333 70.7562526,66.9879207 C68.8536949,66.4135085 67.1750737,65.5670547 65.7194861,64.4476401 C64.2629955,63.3291447 63.1035821,61.9064405 62.2430517,60.1832038 C61.3807154,58.4590481 60.9499987,56.4481458 60.9499987,54.1486589 C60.9499987,51.2453497 61.4692065,48.8861239 62.5103308,47.0719003 C63.5496493,45.2576768 64.9167458,43.8368107 66.6107175,42.807464 C68.3046891,41.7790364 70.2063439,41.0382744 72.3165847,40.584259 C74.4250196,40.1311626 76.5506109,39.7837581 78.6906497,39.5411264 C80.5318054,39.1780979 82.2853731,38.9216803 83.9495468,38.7700354 C85.6128175,38.6193097 87.0837555,38.3610539 88.362361,37.9980254 C89.6400635,37.635916 90.6495839,37.0771278 91.3936312,36.3198227 C92.1358725,35.5643557 92.5078961,34.4302363 92.5078961,32.9174642 C92.5078961,31.5875851 92.1954685,30.4984995 91.5715163,29.6511266 C90.947564,28.8046728 90.1746217,28.1539786 89.2535924,27.6999632 C88.33166,27.2459478 87.3067891,26.9444962 86.1789796,26.7928514 C85.0484612,26.6421256 83.9793448,26.5658437 82.9689214,26.5658437 C80.1164393,26.5658437 77.7678144,27.1715039 75.9266586,28.3800672 C74.0836969,29.5913877 73.0434755,31.4653502 72.8068974,34.0056307 L62.6439704,34.0056307 C62.8218555,30.9819248 63.5352018,28.4710541 64.7831062,26.4757759 C66.0319137,24.4786595 67.6202379,22.8767387 69.5525936,21.6663373 C71.4831434,20.4568549 73.6674278,19.610401 76.1045437,19.1260567 C78.5416596,18.6426313 81.0374686,18.3999996 83.5928736,18.3999996 C85.8512015,18.3999996 88.0797314,18.6426313 90.2793662,19.1260567 C92.4771951,19.610401 94.4537964,20.396197 96.2073641,21.4843635 C97.9600288,22.573449 99.3713708,23.9796101 100.442293,25.7037658 C101.51141,27.4279216 102.045968,29.5307298 102.045968,32.0103525 L102.045968,56.1448562 Z" id="Fill-6" fill="#385771" mask="url(#mask-4)"></path>
                    <path d="M112.699998,20.8233071 L122.040701,20.8233071 L122.040701,29.9198084 L122.214888,29.9198084 C122.505791,28.6465009 123.072564,27.403598 123.91786,26.1901784 C124.760504,24.9776801 125.779104,23.8711372 126.972776,22.8705497 C128.164679,21.8699622 129.489213,21.0665438 130.944609,20.4593733 C132.398236,19.8540455 133.88281,19.5499996 135.395678,19.5499996 C136.559287,19.5499996 137.360374,19.5813255 137.797169,19.6412134 C138.23308,19.7020226 138.683139,19.7637531 139.149997,19.8227196 L139.149997,29.8285947 C138.451478,29.7078976 137.737928,29.6010209 137.011114,29.5098071 C136.282532,29.4195147 135.57075,29.3734471 134.872231,29.3734471 C133.184291,29.3734471 131.598918,29.7235606 130.115228,30.4201022 C128.631538,31.1175651 127.335299,32.1485572 126.230931,33.5121571 C125.123911,34.8766784 124.251204,36.5599872 123.611927,38.5602409 C122.970881,40.5614159 122.651684,42.8675582 122.651684,45.474061 L122.651684,67.8499986 L112.699998,67.8499986 L112.699998,20.8233071 Z" id="Fill-7" fill="#385771" mask="url(#mask-4)"></path>
                    <path d="M143.749997,22.6276264 L151.256867,22.6276264 L151.256867,9.19999981 L161.208553,9.19999981 L161.208553,22.6276264 L170.199996,22.6276264 L170.199996,29.9916732 L161.208553,29.9916732 L161.208553,53.9020097 C161.208553,54.9418567 161.251879,55.8377923 161.339415,56.5871841 C161.426951,57.3392084 161.629433,57.9736466 161.950398,58.4940088 C162.269594,59.0134935 162.749716,59.4031071 163.390762,59.6628494 C164.030924,59.9225918 164.90363,60.052463 166.009766,60.052463 C166.707401,60.052463 167.40592,60.0393003 168.104439,60.0094651 C168.802958,59.9813848 169.501477,59.8795939 170.199996,59.7058473 L170.199996,67.3296364 C169.093861,67.4445899 168.016903,67.560421 166.970009,67.676252 C165.92223,67.7912056 164.844389,67.8499986 163.740021,67.8499986 C161.121017,67.8499986 159.011312,67.6034189 157.410908,67.1128919 C155.809619,66.6232425 154.559359,65.9001759 153.657473,64.9480798 C152.754704,63.9951062 152.143721,62.7964303 151.824524,61.3520522 C151.504443,59.9094292 151.31434,58.2632243 151.256867,56.414315 L151.256867,29.9916732 L143.749997,29.9916732 L143.749997,22.6276264 Z" id="Fill-8" fill="#385771" mask="url(#mask-4)"></path>
                    <path d="M58.6499988,8.62499982 C58.6499988,13.387797 54.7877961,17.2499996 50.024999,17.2499996 C45.261225,17.2499996 41.3999991,13.387797 41.3999991,8.62499982 C41.3999991,3.86122585 45.261225,0 50.024999,0 C54.7877961,0 58.6499988,3.86122585 58.6499988,8.62499982" id="Fill-9" fill="#ED7053" mask="url(#mask-4)"></path>
                </g>
            </g>
        </g>
    </g>
</svg>