<?xml version="1.0" encoding="UTF-8"?>
<svg width="26px" height="26px" viewBox="0 0 26 26" version="1.1" xmlns="http://www.w3.org/2000/svg" xmlns:xlink="http://www.w3.org/1999/xlink">
    <!-- Generator: Sketch 60.1 (88133) - https://sketch.com -->
    <title>noun_add_2324348 copy</title>
    <desc>Created with Sketch.</desc>
    <g id="Page-1" stroke="none" stroke-width="1" fill="none" fill-rule="evenodd" fill-opacity="0.85">
        <g id="LP-PORTFOLIO" transform="translate(-281.000000, -3068.000000)" fill="#000000" fill-rule="nonzero">
            <g id="noun_add_2324348-copy" transform="translate(281.000000, 3068.000000)">
                <g id="Group" transform="translate(0.500000, 0.318910)">
                    <path d="M12.5,0.18109 C5.60825,0.18109 0,5.78939 0,12.68109 C0,19.5728 5.60825,25.1811 12.5,25.1811 C19.3917,25.1811 25,19.5728 25,12.6811 C25,5.78939 19.3917,0.18109 12.5,0.18109 L12.5,0.18109 Z M12.5,2.18109 C18.3108,2.18109 23,6.87029 23,12.68109 C23,18.4919 18.3108,23.18109 12.5,23.18109 C6.68915,23.18109 2,18.4919 2,12.68109 C2,6.87029 6.68915,2.18109 12.5,2.18109 Z M12.5,4.68109 C11.9477,4.68109 11.5,5.12879 11.5,5.68109 L11.5,11.68109 L5.5,11.68109 C4.9477,11.68109 4.5,12.1288 4.5,12.68109 C4.5,13.2334 4.9477,13.68109 5.5,13.68109 L11.5,13.68109 L11.5,19.68109 C11.5,20.2334 11.9477,20.68109 12.5,20.68109 C13.0523,20.68109 13.5,20.2334 13.5,19.68109 L13.5,13.68109 L19.5,13.68109 C20.0523,13.68109 20.5,13.2334 20.5,12.68109 C20.5,12.1288 20.0523,11.68109 19.5,11.68109 L13.5,11.68109 L13.5,5.68109 C13.5,5.12879 13.0523,4.68109 12.5,4.68109 Z" id="Shape"></path>
                </g>
            </g>
        </g>
    </g>
</svg>