<?xml version="1.0" encoding="UTF-8"?>
<svg width="82px" height="86px" viewBox="0 0 82 86" version="1.1" xmlns="http://www.w3.org/2000/svg" xmlns:xlink="http://www.w3.org/1999/xlink">
    <!-- Generator: Sketch 60.1 (88133) - https://sketch.com -->
    <title>undraw_play_time_7k7b</title>
    <desc>Created with Sketch.</desc>
    <g id="Page-1" stroke="none" stroke-width="1" fill="none" fill-rule="evenodd">
        <g id="LP-PORTFOLIO" transform="translate(-549.000000, -1532.000000)">
            <g id="Task-it-landing" transform="translate(280.000000, 1311.000000)">
                <g id="undraw_play_time_7k7b" transform="translate(238.000000, 210.000000)">
                    <path d="M98.2200054,94.0267203 C96.3727349,94.0267203 94.6095532,94.0621695 92.9953467,94.1264175 C92.9979623,94.1133316 92.9995201,94.1000563 93.0000051,94.0867203 C93.0000051,93.5266299 91.0764302,93.0150627 87.9040692,92.6244831 C97.2467189,92.1171494 103.509307,91.1856698 103.509307,90.1203625 C103.509307,88.5127404 89.2503565,87.2095056 71.6610459,87.2095056 C54.0717354,87.2095056 39.8127922,88.5127404 39.8127922,90.1203625 C39.8127922,90.4201717 40.309243,90.7093682 41.2301687,90.9815222 C35.7430532,91.1678606 31.8000017,91.6818074 31.8000017,92.2867202 C31.8000017,93.0488703 38.0590593,93.6667203 45.7800025,93.6667203 C48.2515898,93.6667203 50.5728256,93.6033219 52.5874469,93.4922283 C52.1010448,93.6814563 51.8400028,93.8807883 51.8400028,94.0867203 C51.8400028,95.3127868 61.0539801,96.3067205 72.420004,96.3067205 C77.1423894,96.3067205 81.4923897,96.1350185 84.9652702,95.8465024 C86.8254611,96.3930089 92.056829,96.7867205 98.2200054,96.7867205 C105.940949,96.7867205 112.200006,96.1688705 112.200006,95.4067204 C112.200006,94.6445704 105.940949,94.0267203 98.2200054,94.0267203 Z" id="Path" fill="#3F3D56" fill-rule="nonzero"></path>
                    <path d="M43.3247028,86.0533691 C44.1294636,89.0282497 46.8859514,90.8706674 46.8859514,90.8706674 C46.8859514,90.8706674 48.3376634,87.8898516 47.5329026,84.9149722 C46.7281418,81.9400929 43.971654,80.097674 43.971654,80.097674 C43.971654,80.097674 42.5199419,83.0784897 43.3247028,86.0533691 Z" id="Path" fill="#3F3D56" fill-rule="nonzero"></path>
                    <path d="M44.5072416,85.4140355 C46.7155178,87.5637036 46.9852418,90.8682422 46.9852418,90.8682422 C46.9852418,90.8682422 43.6746432,90.6874826 41.4663683,88.5378144 C39.2580933,86.3881463 38.9883681,83.0836077 38.9883681,83.0836077 C38.9883681,83.0836077 42.2989655,83.2643685 44.5072416,85.4140355 Z" id="Path" fill="#759C41" fill-rule="nonzero"></path>
                    <path d="M72.3099052,22.140468 C72.3099052,22.140468 72.5633356,22.4309004 72.1291023,22.9928521 C71.6948691,23.5548037 72.0455043,24.774179 72.8704804,24.8052434 C73.6954564,24.8363078 74.0955184,25.181831 73.896628,25.6369826 C73.6977376,26.0921342 73.4587384,27.1736487 74.3571677,27.0092043 C75.2555969,26.8447599 75.5395421,27.2024331 75.3804845,27.4773327 C75.2214269,27.7522323 75.7810973,26.9306391 75.7810973,26.9306391 C75.7810973,26.9306391 76.2817458,27.6764991 76.896231,27.1543803 C77.5107162,26.6322615 77.7550242,21.8993844 76.5023022,21.8191668 C75.2495801,21.7389492 72.3099052,22.140468 72.3099052,22.140468 Z" id="Path" fill="#2F2E41" fill-rule="nonzero"></path>
                    <polygon id="Path" fill="#9F616A" fill-rule="nonzero" points="78.6606043 44.6479224 78.9460843 46.6461625 80.2308044 46.6461625 79.8025244 44.3624424"></polygon>
                    <path d="M80.3734844,45.4329481 C80.3734844,45.4329481 82.0863225,47.0030498 81.6581133,47.1457862 C81.229904,47.2885226 79.6598024,49.0013607 79.3743295,49.1440971 C79.1189947,49.2717639 76.3768626,50.1432519 76.8050718,49.1440971 C77.233281,48.1449422 78.2324443,47.5739978 78.2324443,47.5739978 L78.5179171,45.8611597 L80.3734844,45.4329481 Z" id="Path" fill="#F2F2F2" fill-rule="nonzero"></path>
                    <path d="M80.3734844,45.4329481 C80.3734844,45.4329481 82.0863225,47.0030498 81.6581133,47.1457862 C81.229904,47.2885226 79.6598024,49.0013607 79.3743295,49.1440971 C79.1189947,49.2717639 76.3768626,50.1432519 76.8050718,49.1440971 C77.233281,48.1449422 78.2324443,47.5739978 78.2324443,47.5739978 L78.5179171,45.8611597 L80.3734844,45.4329481 Z" id="Path" fill="#000000" fill-rule="nonzero" opacity="0.1"></path>
                    <polygon id="Path" fill="#9F616A" fill-rule="nonzero" points="80.3734844 43.1491224 80.6589644 45.1474825 81.9435645 45.1474825 81.5154045 42.8636423"></polygon>
                    <path d="M75.0056957,37.8446373 L76.8764442,31.6588769 C76.8764442,31.6588769 73.7362408,28.8041464 75.8772881,27.9477279 C78.0183355,27.0913095 78.5892823,31.3734041 78.5892823,31.3734041 L77.8755991,38.7957021 L75.0208685,38.7957021 L75.0056957,37.8446373 Z" id="Path" fill="#FFB8B8" fill-rule="nonzero"></path>
                    <path d="M79.3743319,33.3003438 C79.3743319,33.3003438 75.6852653,38.0319321 76.2451698,38.7349725 C76.8050742,39.438013 77.8042303,43.72011 77.8042303,43.72011 C77.8042303,43.72011 77.6614938,45.4329481 78.2324395,45.4329481 C78.8033851,45.4329481 80.2307504,45.1474681 80.2307504,44.7192648 C80.2307504,44.2910616 78.9461215,38.8670685 78.9461215,38.8670685 L82.6572717,34.0140283 L79.3743319,33.3003438 Z" id="Path" fill="#759C41" fill-rule="nonzero"></path>
                    <path d="M79.6598048,33.5858178 L83.3709538,31.5875057 C83.3709538,31.5875057 85.9402115,32.8721346 85.2265283,34.0140259 C84.512845,35.1559171 81.2299064,38.1533841 81.2299064,38.1533841 C81.2299064,38.1533841 82.2290613,43.0064243 82.0863249,43.149162 C81.9435885,43.2918996 80.3734868,43.8628452 79.9452776,43.7201088 C79.5170683,43.5773724 77.2332834,38.0106477 77.8042303,37.7251749 C78.3751771,37.439702 80.2307504,34.4422351 80.2307504,34.4422351 L79.6598048,33.5858178 Z" id="Path" fill="#759C41" fill-rule="nonzero"></path>
                    <path d="M69.5255126,85.9701167 C69.5255126,85.9701167 72.0947691,87.5402172 72.3802432,87.5402172 C72.6657172,87.5402172 76.5196014,88.5393732 74.8067633,89.2530553 C73.0939252,89.9667373 66.5280456,88.9675825 66.670782,88.5393732 C66.8135185,88.111164 66.670782,85.5419063 66.9562549,85.5419063 C67.2417277,85.5419063 69.5255126,85.9701167 69.5255126,85.9701167 Z" id="Path" fill="#2F2E41" fill-rule="nonzero"></path>
                    <path d="M72.3802432,87.9684276 C72.3802432,87.9684276 74.9494997,89.5385293 75.2349725,89.5385293 C75.5204453,89.5385293 79.3743319,90.5376841 77.6614926,91.2513674 C75.9486533,91.9650506 69.382775,90.9658874 69.5255114,90.5376841 C69.6682478,90.1094809 69.5255114,87.5402172 69.8109842,87.5402172 C70.096457,87.5402172 72.3802432,87.9684276 72.3802432,87.9684276 Z" id="Path" fill="#2F2E41" fill-rule="nonzero"></path>
                    <path d="M69.668249,57.7082876 C69.668249,57.7082876 70.0964582,59.8493349 70.8101415,61.4194366 C71.5238247,62.9895382 70.6674051,70.4118362 70.2391946,71.5537287 C69.8109842,72.6956212 65.6716272,86.2555895 66.9562549,86.3983295 C68.2408825,86.5410695 70.8101415,86.3983295 70.8101415,86.3983295 L74.9494997,73.4093032 L74.2358177,55.9954495 L69.668249,57.7082876 Z" id="Path" fill="#575A88" fill-rule="nonzero"></path>
                    <path d="M69.668249,57.7082876 C69.668249,57.7082876 70.0964582,59.8493349 70.8101415,61.4194366 C71.5238247,62.9895382 70.6674051,70.4118362 70.2391946,71.5537287 C69.8109842,72.6956212 65.6716272,86.2555895 66.9562549,86.3983295 C68.2408825,86.5410695 70.8101415,86.3983295 70.8101415,86.3983295 L74.9494997,73.4093032 L74.2358177,55.9954495 L69.668249,57.7082876 Z" id="Path" fill="#000000" fill-rule="nonzero" opacity="0.1"></path>
                    <path d="M70.5246675,57.851024 C70.5246675,57.851024 71.0956143,61.7049094 72.3802432,62.561329 C73.664872,63.4177487 73.2366616,64.2741671 73.2366616,64.2741671 L72.665716,71.8392075 C72.665716,71.8392075 67.0989913,85.5419123 68.8118294,87.2547504 C70.5246675,88.9675885 72.0947691,88.2539064 72.8084524,88.11117 C73.5221356,87.9684336 74.8067633,84.9709666 74.0930812,84.114547 C73.3793992,83.2581273 75.5204453,78.1196143 76.0913922,77.2631946 C76.662339,76.406775 76.0913922,75.2648837 76.8050742,74.9794109 C77.5187562,74.6939381 79.0888579,72.8383636 79.0888579,71.5537347 C79.0888579,70.2691058 81.08717,56.5664011 79.8025412,55.7099826 C78.5179123,54.8535642 70.2835406,57.4775611 70.2835406,57.4775611 L70.5246675,57.851024 Z" id="Path" fill="#575A88" fill-rule="nonzero"></path>
                    <circle id="Oval" fill="#FFB8B8" fill-rule="nonzero" cx="67.8126745" cy="34.7277091" r="3.14020337"></circle>
                    <circle id="Oval" fill="#9F616A" fill-rule="nonzero" cx="74.9494997" cy="23.3087881" r="2.56925774"></circle>
                    <path d="M69.9537218,34.7277091 C69.9537218,34.7277091 71.6665599,37.8679173 72.5229796,37.8679173 C73.3793992,37.8679173 69.0973034,41.150857 69.0973034,41.150857 C69.0973034,41.150857 67.6699381,37.0114988 67.3844653,36.8687624 C67.0989925,36.726026 69.9537218,34.7277091 69.9537218,34.7277091 Z" id="Path" fill="#FFB8B8" fill-rule="nonzero"></path>
                    <path d="M70.5246675,37.5824373 C70.5246675,37.5824373 66.8135185,38.8670661 66.9562549,39.2952753 C67.0989913,39.7234846 65.9571,40.7226406 65.9571,41.1508498 C65.9571,41.5790591 65.6716272,45.4329457 67.3844653,48.5731479 C69.0973034,51.71335 71.8092963,53.9971362 70.5246675,55.4245014 C69.2400386,56.8518667 67.2417289,59.2783868 69.3827762,59.2783868 C71.5238235,59.2783868 74.9494997,56.1381835 78.0897031,57.2800759 C81.2299064,58.4219684 80.5162232,54.1398726 80.5162232,54.1398726 C80.5162232,54.1398726 80.9444336,50.8569328 80.088014,49.8577767 C79.2315943,48.8586207 76.2341286,41.7217955 76.2341286,40.865377 C76.2341286,40.0089586 73.379404,36.72602 72.665716,36.72602 C71.9520279,36.72602 70.5246675,37.5824373 70.5246675,37.5824373 Z" id="Path" fill="#8985A8" fill-rule="nonzero"></path>
                    <g id="Group" transform="translate(0.000000, 0.093355)"></g>
                    <path d="M75.6631817,24.878891 C75.6631817,24.878891 76.8254898,27.0887919 76.8866502,27.4825743 C76.9478106,27.8763567 78.9461215,24.878891 78.9461215,24.878891 L76.6623378,23.3087893 L75.6631817,24.878891 Z" id="Path" fill="#9F616A" fill-rule="nonzero"></path>
                    <path d="M76.0913922,26.5917291 L78.5179123,24.0224713 L81.3726428,25.3071002 C81.3726428,25.3071002 84.0350518,31.1592965 84.2025802,31.5875057 C84.3701086,32.0157149 79.9452776,34.0140259 79.5170683,34.0140259 C79.0888591,34.0140259 76.0913922,29.5891936 76.0913922,29.5891936 C76.0913922,29.5891936 75.3777089,27.4481475 76.0913922,26.5917291 Z" id="Path" fill="#F2F2F2" fill-rule="nonzero"></path>
                    <polygon id="Path" fill="#9F616A" fill-rule="nonzero" points="74.9494841 30.0174016 74.9494841 32.5866018 76.6623642 32.5866018 76.0989642 30.0174016"></polygon>
                    <path d="M75.9267725,31.9443473 C75.4835742,31.9383531 75.0830357,32.2075932 74.9212541,32.6202522 C74.8096757,32.9220198 74.8475453,33.2391714 75.3777089,33.3717126 C76.5196014,33.6571854 76.6623378,33.3717126 76.6623378,33.3717126 C76.6623378,33.3717126 78.6445975,33.0862398 78.2244139,32.5152942 C77.8042303,31.9443485 76.6623378,31.9443473 76.6623378,31.9443473 L75.9267725,31.9443473 Z" id="Path" fill="#9F616A" fill-rule="nonzero"></path>
                    <path d="M82.0863249,44.2910556 C82.0863249,44.2910556 83.799163,45.8611573 83.3709538,46.0038937 C82.9427445,46.1466301 81.3726428,47.8594682 81.08717,48.0022046 C80.8318352,48.1298726 78.0897031,49.0013607 78.5179123,48.0022046 C78.9461215,47.0030486 79.9452776,46.4321029 79.9452776,46.4321029 L80.2307504,44.7192648 L82.0863249,44.2910556 Z" id="Path" fill="#F2F2F2" fill-rule="nonzero"></path>
                    <path d="M66.6938292,32.3105298 C66.8902909,32.1954078 67.1223205,32.0520306 67.1279317,31.8243941 C67.1174655,31.6534682 67.0066512,31.5050145 66.8457577,31.4463761 C66.6873721,31.3917313 66.5196995,31.3691358 66.3524988,31.3799045 C66.2883452,31.3766292 66.2240633,31.3830006 66.1618008,31.3988057 C65.9992128,31.4489549 65.905548,31.6140377 65.7774876,31.7260649 C65.5915344,31.8887369 65.3354076,31.9365821 65.0962476,31.9985777 C64.6955528,32.1025449 64.3112844,32.2617936 63.9545087,32.4717378 C63.8840518,32.5073627 63.8223446,32.5581275 63.7738067,32.6203962 C63.7176735,32.7350687 63.6926385,32.8624717 63.7012067,32.9898582 C63.6689855,33.4741446 63.3786347,33.8956951 63.1618787,34.3299619 C62.9451226,34.7642287 62.8027186,35.3052103 63.0571342,35.7185468 C63.1581049,35.8471603 63.2523355,35.9809252 63.3394463,36.1193024 C63.5197499,36.4950128 63.2947115,36.9576224 63.4249835,37.3534724 C63.483283,37.5092964 63.5768151,37.649534 63.6982751,37.7632329 C63.948937,38.0156789 64.2577814,38.2026758 64.5976535,38.3077821 C64.9220135,38.4076569 65.3244492,38.4742137 65.4514872,38.7889341 C65.505984,38.9239425 65.4948636,39.0830025 65.5717476,39.2066385 C65.6669892,39.359797 65.8633476,39.4092718 66.0407196,39.4419358 C66.2398139,39.4874632 66.4446975,39.5022909 66.6482724,39.485905 C66.8540153,39.468121 67.0434555,39.3667158 67.1723521,39.2053713 C67.2298973,39.092699 67.3011732,38.987586 67.3845529,38.8924317 C67.5912253,38.7197025 67.9051525,38.8561341 68.1705841,38.8103649 C68.3901539,38.7689398 68.5658321,38.6040447 68.6210641,38.3875353 C68.628351,38.2745687 68.6595169,38.1644326 68.7125042,38.0643981 C68.877341,37.8534621 69.3110642,38.0023737 69.4199042,37.7577897 C69.4906214,37.5988617 69.3426698,37.43096 69.1996106,37.3319996 C68.966345,37.1706392 68.7055778,37.0465292 68.4963661,36.8550056 C68.2871545,36.663482 68.1323689,36.3769316 68.1978721,36.1009604 C68.2961041,35.6871007 68.8364462,35.4592231 68.854349,35.0342419 C68.8646042,34.7907823 68.6896526,34.5771283 68.4937921,34.4321587 C68.2979317,34.2871891 68.0709781,34.1830267 67.8958993,34.0135423 C67.7679217,33.8896555 67.6714213,33.7341822 67.5322993,33.6229566 C67.2807145,33.4218042 66.9364693,33.3974082 66.6160392,33.3645186 C66.4441644,33.3468786 65.7585756,33.2674794 65.7855468,33.0056718 C65.8079448,32.7882342 66.5193732,32.4127578 66.6938292,32.3105298 Z" id="Path" fill="#2F2E41" fill-rule="nonzero"></path>
                    <path d="M76.0913922,26.4489914 C76.0913922,26.4489914 74.5212905,27.0199383 74.5212905,27.7336203 C74.5212905,28.4473024 73.8076072,30.7310873 74.5212905,30.7310873 C75.2349737,30.7310873 76.6623378,30.1831816 76.6623378,30.1831816 L76.0913922,26.4489914 Z" id="Path" fill="#F2F2F2" fill-rule="nonzero"></path>
                    <path d="M75.6631817,36.72602 C75.6631817,36.72602 79.8025412,35.2986559 79.9452776,35.2986559 C80.088014,35.2986559 82.0863249,34.1567635 81.9435885,33.7285542 L81.3726428,30.1601416 C81.3726428,30.1601416 79.0888579,25.4498366 80.6589644,25.4498366 C82.2290709,25.4498366 83.0854845,29.1609856 83.0854845,29.1609856 C83.0854845,29.1609856 86.5111607,35.5841287 84.6555862,37.011494 C82.8000117,38.4388593 75.0922397,41.0081158 74.6640257,40.5799066 C74.2358117,40.1516974 75.6631817,36.72602 75.6631817,36.72602 Z" id="Path" fill="#FFB8B8" fill-rule="nonzero"></path>
                    <path d="M79.6598048,27.4481475 L80.6232764,28.3766152 L79.3743319,29.5891948 C79.3743319,29.5891948 77.6614938,28.8755128 77.8042303,29.303722 C77.9469667,29.7319312 78.8033851,31.0165601 79.3743319,31.0165601 C79.9452788,31.0165601 82.9167957,29.1609856 82.9297701,28.59004 C82.9427445,28.0190943 81.08717,26.0207822 80.6589596,25.8780398 C80.2307492,25.7352974 79.6598048,27.4481475 79.6598048,27.4481475 Z" id="Path" fill="#9F616A" fill-rule="nonzero"></path>
                    <path d="M77.8481563,26.453201 C77.8481563,26.453201 79.9452764,28.3045671 80.2307564,28.3045671 C80.5162364,28.3045671 81.0354032,25.5229466 81.0354032,25.5229466 C81.0354032,25.5229466 79.3433479,24.4204549 78.7165231,24.7210406 C78.0896983,25.0216262 77.8481563,26.453201 77.8481563,26.453201 Z" id="Path" fill="#F2F2F2" fill-rule="nonzero"></path>
                    <path d="M70.5246675,38.4388581 C70.5246675,38.4388581 70.5246675,36.4405472 74.8067633,36.4405472 L76.6623378,36.4405472 L75.8059241,41.1508522 L72.9511936,42.0072719 L70.5246675,38.4388581 Z" id="Path" fill="#8985A8" fill-rule="nonzero"></path>
                    <path d="M79.8783644,22.2674676 C79.4587028,22.2654477 79.0394946,22.2395961 78.6227647,22.1900376 C78.2954815,21.399132 77.8786447,20.7354983 77.4277302,20.4880775 C77.1077034,20.2017215 76.614117,19.9936199 76.2268386,19.8290855 C75.2757809,19.4250455 73.6925812,19.6770563 73.6000276,20.1365699 C71.7286011,21.0307835 72.2015091,22.6011732 72.2015091,22.6011732 C72.4922896,23.2158349 73.1446456,22.9434205 73.6980784,22.6650636 C73.8394084,23.1106357 74.1732257,23.4887677 74.6511389,23.5067629 C75.5650469,23.5411741 76.008237,23.9239441 75.7879049,24.4281661 C75.5675729,24.9323882 75.3028097,26.1304862 76.2980898,25.9483094 C77.2933698,25.7661326 77.607927,26.1623702 77.4317202,26.466905 C77.2555134,26.7714399 77.8755211,25.8612758 77.8755211,25.8612758 C77.8755211,25.8612758 78.4301371,26.6875419 79.1108647,26.1091382 C79.1796981,26.0428341 79.2287905,25.958736 79.2526819,25.866197 C79.5692419,26.002439 79.81997,26.0541542 79.962338,25.990457 C80.7777176,25.6256378 80.2713308,24.7689698 80.2713308,24.7689698 C80.2713308,24.7689698 81.35987,24.6019813 81.009122,24.6296629 C80.658374,24.6573445 80.4364892,24.2026921 81.0299828,23.3832229 C81.6234765,22.5637536 80.4283052,22.286064 79.8783644,22.2674676 Z" id="Path" fill="#2F2E41" fill-rule="nonzero"></path>
                    <rect id="Rectangle" fill="#759C41" fill-rule="nonzero" transform="translate(73.950347, 22.166893) rotate(18.406790) translate(-73.950347, -22.166893) " x="73.7362427" y="21.5245783" width="1" height="1.28462887"></rect>
                    <path d="M49.0865427,44.4384372 C43.533336,44.464032 39.0132441,44.5460772 39.0132441,44.5460772 C39.0132441,44.5460772 44.3860824,37.4292068 49.0663923,40.0659574 C53.7467021,42.7027079 59.1231884,44.4533976 59.1231884,44.4533976 C59.1231884,44.4533976 54.6397506,44.4128376 49.0865427,44.4384372 Z" id="Path" fill="#F2F2F2" fill-rule="nonzero"></path>
                    <path d="M89.0465449,16.3584357 C83.4933382,16.3840305 78.9732463,16.4660757 78.9732463,16.4660757 C78.9732463,16.4660757 84.3460846,9.34920531 89.0263945,11.9859559 C93.7067043,14.6227064 99.0831906,16.3733961 99.0831906,16.3733961 C99.0831906,16.3733961 94.5997528,16.3328361 89.0465449,16.3584357 Z" id="Path" fill="#F2F2F2" fill-rule="nonzero"></path>
                    <path d="M98.2734654,46.4784373 C103.826672,46.5040321 108.346764,46.5860773 108.346764,46.5860773 C108.346764,46.5860773 102.973926,39.469207 98.2936158,42.1059575 C93.6133059,44.742708 88.2368196,46.4933977 88.2368196,46.4933977 C88.2368196,46.4933977 92.7202575,46.4528377 98.2734654,46.4784373 Z" id="Path" fill="#F2F2F2" fill-rule="nonzero"></path>
                </g>
            </g>
        </g>
    </g>
</svg>